<mxfile host="app.diagrams.net" modified="2023-01-09T12:15:35.563Z" agent="5.0 (Windows NT 10.0; Win64; x64) AppleWebKit/537.36 (KHTML, like Gecko) Chrome/108.0.0.0 Safari/537.36" version="20.8.3" etag="AmjHQWRC3lb2R8hshtW0" type="github">
  <diagram id="HY6WDKn0BJJvhK5xIZvl" name="Página-1">
    <mxGraphModel dx="880" dy="452" grid="1" gridSize="10" guides="1" tooltips="1" connect="1" arrows="1" fold="1" page="1" pageScale="1" pageWidth="827" pageHeight="1169" math="0" shadow="0">
      <root>
        <mxCell id="0" />
        <mxCell id="1" parent="0" />
        <mxCell id="P93X2A9Ib0Srr5vkSfB7-16" style="edgeStyle=orthogonalEdgeStyle;rounded=0;orthogonalLoop=1;jettySize=auto;html=1;entryX=0.5;entryY=0;entryDx=0;entryDy=0;" edge="1" parent="1" source="P93X2A9Ib0Srr5vkSfB7-12" target="P93X2A9Ib0Srr5vkSfB7-13">
          <mxGeometry relative="1" as="geometry" />
        </mxCell>
        <mxCell id="P93X2A9Ib0Srr5vkSfB7-12" value="Inicio" style="strokeWidth=2;html=1;shape=mxgraph.flowchart.start_1;whiteSpace=wrap;shadow=1;labelBackgroundColor=#9933FF;" vertex="1" parent="1">
          <mxGeometry x="350" y="70" width="100" height="60" as="geometry" />
        </mxCell>
        <mxCell id="P93X2A9Ib0Srr5vkSfB7-17" style="edgeStyle=orthogonalEdgeStyle;rounded=0;orthogonalLoop=1;jettySize=auto;html=1;entryX=0.5;entryY=0;entryDx=0;entryDy=0;entryPerimeter=0;" edge="1" parent="1" source="P93X2A9Ib0Srr5vkSfB7-13" target="P93X2A9Ib0Srr5vkSfB7-14">
          <mxGeometry relative="1" as="geometry" />
        </mxCell>
        <mxCell id="P93X2A9Ib0Srr5vkSfB7-13" value="Estudar Fluxograma" style="rounded=1;whiteSpace=wrap;html=1;absoluteArcSize=1;arcSize=14;strokeWidth=2;shadow=1;labelBackgroundColor=#9933FF;" vertex="1" parent="1">
          <mxGeometry x="350" y="200" width="100" height="50" as="geometry" />
        </mxCell>
        <mxCell id="P93X2A9Ib0Srr5vkSfB7-18" style="edgeStyle=orthogonalEdgeStyle;rounded=0;orthogonalLoop=1;jettySize=auto;html=1;" edge="1" parent="1" source="P93X2A9Ib0Srr5vkSfB7-14" target="P93X2A9Ib0Srr5vkSfB7-15">
          <mxGeometry relative="1" as="geometry" />
        </mxCell>
        <mxCell id="P93X2A9Ib0Srr5vkSfB7-19" value="sim" style="edgeLabel;html=1;align=center;verticalAlign=middle;resizable=0;points=[];" vertex="1" connectable="0" parent="P93X2A9Ib0Srr5vkSfB7-18">
          <mxGeometry x="0.2167" y="-5" relative="1" as="geometry">
            <mxPoint as="offset" />
          </mxGeometry>
        </mxCell>
        <mxCell id="P93X2A9Ib0Srr5vkSfB7-20" style="edgeStyle=orthogonalEdgeStyle;rounded=0;orthogonalLoop=1;jettySize=auto;html=1;exitX=0;exitY=0.5;exitDx=0;exitDy=0;exitPerimeter=0;entryX=0;entryY=0.5;entryDx=0;entryDy=0;" edge="1" parent="1" source="P93X2A9Ib0Srr5vkSfB7-14" target="P93X2A9Ib0Srr5vkSfB7-13">
          <mxGeometry relative="1" as="geometry">
            <Array as="points">
              <mxPoint x="270" y="360" />
              <mxPoint x="270" y="225" />
            </Array>
          </mxGeometry>
        </mxCell>
        <mxCell id="P93X2A9Ib0Srr5vkSfB7-21" value="Não" style="edgeLabel;html=1;align=center;verticalAlign=middle;resizable=0;points=[];" vertex="1" connectable="0" parent="P93X2A9Ib0Srr5vkSfB7-20">
          <mxGeometry x="-0.1186" y="-3" relative="1" as="geometry">
            <mxPoint x="-3" y="-20" as="offset" />
          </mxGeometry>
        </mxCell>
        <mxCell id="P93X2A9Ib0Srr5vkSfB7-14" value="Conteudo aprendido?" style="strokeWidth=2;html=1;shape=mxgraph.flowchart.decision;whiteSpace=wrap;shadow=1;labelBackgroundColor=#9933FF;" vertex="1" parent="1">
          <mxGeometry x="350" y="310" width="100" height="100" as="geometry" />
        </mxCell>
        <mxCell id="P93X2A9Ib0Srr5vkSfB7-15" value="Fim do aprendizado" style="strokeWidth=2;html=1;shape=mxgraph.flowchart.start_1;whiteSpace=wrap;shadow=1;labelBackgroundColor=#9933FF;" vertex="1" parent="1">
          <mxGeometry x="570" y="330" width="100" height="60" as="geometry" />
        </mxCell>
      </root>
    </mxGraphModel>
  </diagram>
</mxfile>
